<svg 
xmlns="http://www.w3.org/2000/svg" data-name="Layer 1" viewBox="0 0 512 512">
<path id="svg_2" clip-rule="evenodd" fill="#007fff" fill-rule="evenodd" stroke-miterlimit="10" stroke-width="37" d="m730.940002,1839.630005c-38.765991,-190.300049 -107.116028,-348.670044 -189.903015,-495.440063c-61.406982,-108.869995 -132.543976,-209.359985 -198.363983,-314.939941c-21.972015,-35.242981 -40.93399,-72.476013 -62.046997,-109.052979c-42.216003,-73.137024 -76.444,-157.934998 -74.269012,-267.932007c2.125,-107.473022 33.208008,-193.684021 78.029999,-264.172028c73.718994,-115.934998 197.201019,-210.988983 362.884003,-235.968994c135.466003,-20.423996 262.474976,14.082001 352.54303,66.748001c73.596008,43.03801 130.596008,100.526993 173.915955,168.280014c45.219971,70.716003 76.359985,154.259979 78.969971,263.231964c1.340088,55.830017 -7.799927,107.532043 -20.679932,150.41803c-13.030029,43.408997 -33.98999,79.695007 -52.640015,118.453979c-36.410034,75.658997 -82.050049,144.984009 -127.859985,214.343994c-136.437012,206.609985 -264.496033,417.310059 -320.580017,706.030029z"/>

<path fill="#cae6f7" d="M37.5 168.5h119a30 30 0 0 1 30 30v306a0 0 0 0 1 0 0H7.5a0 0 0 0 1 0 0v-306a30 30 0 0 1 30-30zM355.5 168.5h119a30 30 0 0 1 30 30v306a0 0 0 0 1 0 0h-179a0 0 0 0 1 0 0v-306a30 30 0 0 1 30-30z"/><path fill="#b8dff7" d="M474.5 168.5h-45a30 30 0 0 1 30 30v306h45v-306A30 30 0 0 0 474.5 168.5zM151.5 97.5h209a30 30 0 0 1 30 30v377a0 0 0 0 1 0 0h-269a0 0 0 0 1 0 0v-377A30 30 0 0 1 151.5 97.5z"/><rect width="179" height="179" x="166.5" y="7.5" fill="#bcd44c" rx="30"/><path fill="#aece44" d="M315.5,7.5h-30a30,30,0,0,1,30,30v119a30,30,0,0,1-30,30h30a30,30,0,0,0,30-30V37.5A30,30,0,0,0,315.5,7.5Z"/><path fill="#e1e1e3" d="M255.81774,59.27438h0A14.94443,14.94443,0,0,1,270.7622,74.21881V87.70528a0,0,0,0,1,0,0H240.8733a0,0,0,0,1,0,0V74.21881A14.94443,14.94443,0,0,1,255.81774,59.27438Z"/><path fill="#fff" d="M255.0887,84.42479h1.4581a50.30078,50.30078,0,0,1,50.30078,50.30078v.00005a0,0,0,0,1,0,0H204.78793a0,0,0,0,1,0,0v-.00005A50.30078,50.30078,0,0,1,255.0887,84.42479Z"/><path fill="#8b8893" d="M239,343.5h34a30,30,0,0,1,30,30v131a0,0,0,0,1,0,0H209a0,0,0,0,1,0,0v-131A30,30,0,0,1,239,343.5Z"/><path fill="#787681" d="M273,343.5H243a30,30,0,0,1,30,30v131h30v-131A30,30,0,0,0,273,343.5Z"/><rect width="67" height="67" x="166.5" y="231.5" fill="#52bbe9" rx="4"/><path fill="#1cabe1" d="M229.5,231.5h-30a3.99992,3.99992,0,0,1,4,4v59a4,4,0,0,1-4,4h30a4,4,0,0,0,4-4v-59A3.99992,3.99992,0,0,0,229.5,231.5Z"/><rect width="67" height="67" x="278.5" y="231.5" fill="#52bbe9" rx="4"/><path fill="#1cabe1" d="M341.5,231.5h-30a3.99992,3.99992,0,0,1,4,4v59a4,4,0,0,1-4,4h30a4,4,0,0,0,4-4v-59A3.99992,3.99992,0,0,0,341.5,231.5Z"/><path fill="#52bbe9" d="M390.5,231.5h63a4,4,0,0,1,4,4v59a4,4,0,0,1-4,4h-63a0,0,0,0,1,0,0v-67A0,0,0,0,1,390.5,231.5Z"/><path fill="#1cabe1" d="M453.5,231.5h-30a3.99992,3.99992,0,0,1,4,4v59a4,4,0,0,1-4,4h30a4,4,0,0,0,4-4v-59A3.99992,3.99992,0,0,0,453.5,231.5Z"/><path fill="#52bbe9" d="M58.5,231.5h63a0,0,0,0,1,0,0v67a0,0,0,0,1,0,0h-63a4,4,0,0,1-4-4v-59A4,4,0,0,1,58.5,231.5Z"/><rect width="30" height="67" x="91.5" y="231.5" fill="#1cabe1"/><path fill="#52bbe9" d="M390.5,351.5h63a4,4,0,0,1,4,4v59a4,4,0,0,1-4,4h-63a0,0,0,0,1,0,0v-67A0,0,0,0,1,390.5,351.5Z"/><path fill="#1cabe1" d="M453.5,351.5h-30a3.99992,3.99992,0,0,1,4,4v59a4,4,0,0,1-4,4h30a4,4,0,0,0,4-4v-59A3.99992,3.99992,0,0,0,453.5,351.5Z"/><path fill="#52bbe9" d="M58.5,351.5h63a0,0,0,0,1,0,0v67a0,0,0,0,1,0,0h-63a4,4,0,0,1-4-4v-59A4,4,0,0,1,58.5,351.5Z"/><rect width="30" height="67" x="91.5" y="351.5" fill="#1cabe1"/><path fill="#3c3b41" d="M233.5,224.00019h-67a7.50006,7.50006,0,0,0-7.5,7.5v67a7.50006,7.50006,0,0,0,7.5,7.5h67a7.50006,7.50006,0,0,0,7.5-7.5v-67A7.50006,7.50006,0,0,0,233.5,224.00019Zm-7.5,67H174v-52h52Zm248.5-130H398v-33.5a37.54226,37.54226,0,0,0-37.5-37.5H353v-52.5a37.54226,37.54226,0,0,0-37.5-37.5h-119a37.54227,37.54227,0,0,0-37.5,37.5v52.5h-7.5a37.54227,37.54227,0,0,0-37.5,37.5v33.5H37.5a37.54227,37.54227,0,0,0-37.5,37.5v306a7.50006,7.50006,0,0,0,7.5,7.5h497a7.49974,7.49974,0,0,0,7.5-7.5v-306A37.54226,37.54226,0,0,0,474.5,161.00019Zm-360.5,250H62v-52h52Zm0-120H62v-52h52Zm0-67H54.5a7.50006,7.50006,0,0,0-7.5,7.5v67a7.50006,7.50006,0,0,0,7.5,7.5H114v38H54.5a7.50006,7.50006,0,0,0-7.5,7.5v67a7.50006,7.50006,0,0,0,7.5,7.5H114v71H15v-298.5a22.52523,22.52523,0,0,1,22.5-22.5H114Zm60-186.5a22.52523,22.52523,0,0,1,22.5-22.5h119a22.52554,22.52554,0,0,1,22.5,22.5v119a22.52554,22.52554,0,0,1-22.5,22.5h-119a22.52523,22.52523,0,0,1-22.5-22.5Zm121.5,459.5h-79v-123.5a22.52523,22.52523,0,0,1,22.5-22.5h34a22.52554,22.52554,0,0,1,22.5,22.5Zm87.5,0H310.5v-123.5a37.54226,37.54226,0,0,0-37.5-37.5H239a37.54227,37.54227,0,0,0-37.5,37.5v123.5H129v-369.5a22.52523,22.52523,0,0,1,22.5-22.5H159v51.5a37.54226,37.54226,0,0,0,37.5,37.5h119a37.54225,37.54225,0,0,0,37.5-37.5v-51.5h7.5a22.52554,22.52554,0,0,1,22.5,22.5Zm15-258h52v52H398Zm0,120h52v52H398Zm99,138H398v-71h59.5a7.49974,7.49974,0,0,0,7.5-7.5v-67a7.49974,7.49974,0,0,0-7.5-7.5H398v-38h59.5a7.49974,7.49974,0,0,0,7.5-7.5v-67a7.49974,7.49974,0,0,0-7.5-7.5H398v-48h76.5a22.52554,22.52554,0,0,1,22.5,22.5ZM194.21729,142.22578H317.78223a7.5,7.5,0,1,0,0-15H313.845a57.95816,57.95816,0,0,0-35.5852-46.05164V74.22041a22.44483,22.44483,0,1,0-44.88965,0v6.95605a57.9571,57.9571,0,0,0-35.57935,46.04932h-3.57348a7.5,7.5,0,0,0,0,15Zm54.15283-68.00537a7.4584,7.4584,0,0,1,7.44971-7.4502,7.45447,7.45447,0,0,1,7.43994,7.4502v3.10784a58.0413,58.0413,0,0,0-6.71289-.40325h-1.458a58.0411,58.0411,0,0,0-6.71875.40393ZM255.08887,91.925h1.458a42.87161,42.87161,0,0,1,42.14257,35.30078H212.9458A42.87293,42.87293,0,0,1,255.08887,91.925ZM345.5,224.00019h-67a7.49974,7.49974,0,0,0-7.5,7.5v67a7.49974,7.49974,0,0,0,7.5,7.5h67a7.49974,7.49974,0,0,0,7.5-7.5v-67A7.49974,7.49974,0,0,0,345.5,224.00019Zm-7.5,67H286v-52h52Z"/>



</svg>